Simulation
nRows=35
nColumns=15
endheader
time  TH_x TH_y TH_z SC_y  SC_z  SC_x  AC_y  AC_z  AC_x  GH_y  GH_z  GH_yy  EL_x  PS_y
0.0  0.000000  0.000000  0.000000  -22.62422926136906  4.436738287603048  -6.396217809091908  56.80924820454262  8.79085205204657  7.363173742256492  -157.17647810035942  4.115697610382322  -165.22147578036592  20.87234034106646  120.000000
0.04016479400749064  0.000000  0.000000  0.000000  -22.64486087026721  4.459218421919933  -6.373953244732442  56.77580361036827  8.845335042585813  7.350565637536578  -156.25100876584642  3.9747472863523265  -166.24437670751647  20.35022623675016  120.000000
0.08032958801498127  0.000000  0.000000  0.000000  -22.70853012574415  4.526224005523758  -6.313029740131435  56.670848961796196  9.00132002335863  7.30807082116789  -152.96511095224704  3.5676130590945987  -169.8263926929582  19.83607647653157  120.000000
0.12049438202247191  0.000000  0.000000  0.000000  -22.82497978618713  4.636783796643796  -6.229206499733415  56.48445363625543  9.236946252420223  7.232333491066474  -145.4770173705837  2.952701833521433  -177.81582076967845  19.314210625380223  120.000000
0.16065917602996255  0.000000  0.000000  0.000000  -23.00855862680839  4.785489402289867  -6.141587445666835  56.210128235985614  9.524949265310518  7.12654242659635  -129.03527005123001  2.2746117672104273  165.03337313920434  18.773661822414383  120.000000
0.20082397003745317  0.000000  0.000000  0.000000  -23.27205718951132  4.964586913220491  -6.06424592940404  55.84804664230527  9.842018299833912  6.997471600123334  -96.15522462491633  1.9186955635003629  131.2406001691826  18.208134476127157  120.000000
0.24098876404494382  0.000000  0.000000  0.000000  -23.62691120719117  5.169049129721553  -6.001894530840501  55.405293543434134  10.170404416262782  6.853920220012286  -59.72961233007782  2.426571432141002  93.70876123292561  17.61767053582008  120.000000
0.28115355805243447  0.000000  0.000000  0.000000  -24.08020802610903  5.397394944964956  -5.949475100519549  54.89661381371915  10.498850889239176  6.702216209494741  -39.37475665893006  3.667957663095611  72.06911909987481  17.006647461130388  120.000000
0.3213183520599251  0.000000  0.000000  0.000000  -24.633495351279304  5.651970110265164  -5.8936006904574665  54.34011441874227  10.821267041315615  6.547051825784283  -29.369867400225576  5.2970859619216695  60.62012506208956  16.382724598442103  120.000000
0.3614831460674157  0.000000  0.000000  0.000000  -25.28378965582607  5.935617517442752  -5.81802142310859  53.754776008433545  11.13587014782738  6.392635442473231  -23.93162846604542  7.169366982066667  53.600802258038925  15.754703558440053  120.000000
0.40164794007490634  0.000000  0.000000  0.000000  -26.02443848510652  6.250559152791418  -5.7071918752614135  53.159524793393274  11.442898355015354  6.243004558466221  -20.690898425850456  9.227280625321011  48.6667823995238  15.13197901270605  120.000000
0.441812734082397  0.000000  0.000000  0.000000  -26.84601672884875  6.59814646498047  -5.544430036085068  52.5718233993383  11.740594887641281  6.101190434404237  -18.65568091584724  11.43915369403569  44.85248164780023  14.523555756306036  120.000000
0.48197752808988764  0.000000  0.000000  0.000000  -27.736934777905752  6.978218267126886  -5.311441842171366  52.00823679432429  12.023687049456834  5.968085501602366  -17.357331977288297  13.78040527092076  41.716518745934636  13.937219756255221  120.000000
0.5221423220973783  0.000000  0.000000  0.000000  -28.683840508122437  7.388592928523302  -4.9907937690269435  51.484252983734585  12.284147190575782  5.843345255753996  -16.54713636513072  16.22668221942171  39.03760047403486  13.379194359392736  120.000000
0.5623071161048689  0.000000  0.000000  0.000000  -29.67250437769055  7.8251982135463685  -4.569565363124219  51.01386598634777  12.51439727979924  5.72745473297253  -16.076672205239266  18.75180026110417  36.6938170001102  12.853670374126748  120.000000
0.6024719101123596  0.000000  0.000000  0.000000  -30.688259994096523  8.28343502084677  -4.043668366722366  50.608792422732684  12.712167659023946  5.624737614871183  -15.846509101163585  21.328497240544817  34.61033359708325  12.362737228918444  120.000000
0.6426367041198502  0.000000  0.000000  0.000000  -31.71657483223924  8.75886290737708  -3.4155148141369636  50.27817608712201  12.880265687282247  5.542497924094276  -15.78403870865647  23.930112974459803  32.73604115821062  11.906038966005777  120.000000
0.6828014981273408  0.000000  0.000000  0.000000  -32.74344498699674  9.247173337114123  -2.6881820769345  50.02845903174131  13.023086268587097  5.487788396372631  -15.83433246423653  26.531484609544506  31.033535783572063  11.480644504825426  120.000000
0.7229662921348314  0.000000  0.000000  0.000000  -33.7552967904824  9.743995959163762  -1.8654321159473273  49.86276600246701  13.14732820427452  5.467643992121749  -15.955827373621045  29.109105875510767  29.474201679417227  11.081205527163762  120.000000
0.7631310861423221  0.000000  0.000000  0.000000  -34.738783642628576  10.244725131887368  -0.951246396262448  49.780781131845416  13.261743205660046  5.488788753909905  -16.117517294253503  31.641293100995156  28.035485298763504  10.700426032758289  120.000000
0.8032958801498127  0.000000  0.000000  0.000000  -35.68063116389162  10.744001250571111  0.050646880269484426  49.778563186117395  13.375774283312563  5.5567754757553685  -16.29784140338523  34.108247857510364  26.70029384726583  10.33003753447164  120.000000
0.8434606741573034  0.000000  0.000000  0.000000  -36.56840274275575  11.235380955112701  1.1353839687549407  49.848499291660076  13.49837148060496  5.6757331816843655  -16.483742851198166  36.49199137669901  25.457065316136724  9.96207205566807  120.000000
0.883625468164794  0.000000  0.000000  0.000000  -37.3914818521063  11.711969961998289  2.295611394291378  49.979981827098484  13.63664884995828  5.8472077068139034  -16.669588140003047  38.77663273101941  24.299805548997018  9.590383701086742  120.000000
0.9237902621722847  0.000000  0.000000  0.000000  -38.14247609731666  12.166894094868388  3.520703764165072  50.160088580659824  13.794696476310756  6.069661944389303  -16.855087828479014  40.94933817330576  23.227349111166806  9.212102812503629  120.000000
0.9639550561797753  0.000000  0.000000  0.000000  -38.81799128975516  12.593504578259358  4.7965382447589775  50.374187099434984  13.972357901840102  6.33915270032409  -17.042982599844603  43.00085349201402  22.242316991382157  8.828817276107205  120.000000
1.004119850187266  0.000000  0.000000  0.000000  -39.4180076203656  12.985951989610637  6.105202175914759  50.60728525627801  14.165119874973007  6.6493937467052  -17.237064206761353  44.925215634330314  21.34990358825709  8.446783694357286  120.000000
1.0442846441947566  0.000000  0.000000  0.000000  -39.945298285261416  13.339893836667965  7.425535621190974  50.84534214010137  14.364823050963974  6.9919613676476615  -17.4405732904414  46.71943658405387  20.556472455116154  8.076138005486639  120.000000
1.0844494382022472  0.000000  0.000000  0.000000  -40.40472394361884  13.653078838451261  8.7341162813027  51.07634724182771  14.560962441491911  7.356547384457446  -17.655372441579562  48.382845136913254  19.86823954980773  7.729350495236562  120.000000
1.1246142322097379  0.000000  0.000000  0.000000  -40.802495178364936  13.925511700529755  10.006482795826326  51.29118075147742  14.74215794861191  7.731202888306697  -17.881588050311112  49.916272547755895  19.290081008487896  7.419441079340171  120.000000
1.1647790262172284  0.000000  0.000000  0.000000  -41.145490612827274  14.159273211179402  11.218420655742523  51.484114376286406  14.8974611347195  8.102686638970939  -18.117656331100545  51.32107265508919  18.82449663610046  7.15823952929214  120.000000
1.2049438202247191  0.000000  0.000000  0.000000  -41.44064711660367  14.358076979587985  12.34718904289067  51.652805363597125  15.017360266217807  8.45691964946323  -18.360494025970606  52.598424489096516  18.470796303983956  6.954964668421424  120.000000
1.2451086142322096  0.000000  0.000000  0.000000  -41.69456463061012  14.526712537760506  13.372917655545121  51.797719249620165  15.094653416743457  8.779755884061656  -18.60569037370703  53.749141771496255  18.224515208101877  6.81522014241833  120.000000
1.2852734082397004  0.000000  0.000000  0.000000  -41.91323696646558  14.670461276626826  14.280010116866348  51.921081127867566  15.125141367646778  9.05806381199909  -18.847609305954933  54.774170831699934  18.07703827692409  6.740270134144376  120.000000
1.325438202247191  0.000000  0.000000  0.000000  -42.102035171796125  14.794386511804786  15.058460180605763  52.02558287901463  15.108038042920624  9.281102228511665  -19.079489309119403  55.67534177911307  18.015449952720022  6.726522890189419  120.000000
1.3656029962546816  0.000000  0.000000  0.000000  -42.265740029205354  14.902633748579714  15.704613941642886  52.11319349385128  15.046009941468746  9.441650871553946  -19.29352071150029  56.45607442250351  18.02261228538019  6.765195408092568  120.000000
